# xmcd
#
# Track frame offsets:
#	151
#	31374
#	60986
#	88220
#	106868
#	132786
#	161912
#
# Disc length: 2887 seconds
#
# Revision: 1
# Processed by: cddbd v1.5.2PL0 Copyright (c) Steve Scherf et al.
# Submitted via: audiograbber 1.83.01
#
DISCID=540b4507
DTITLE=Hans Blues and Boogie and the Hammond Band - ...groovin' the blues
DYEAR=1999
DGENRE=Blues
TTITLE0=Tie break
TTITLE1=Good times gone
TTITLE2=I like to be tipsy
TTITLE3=The blues came and hit me
TTITLE4=Think twice
TTITLE5=I can't do it
TTITLE6=Everyday I have the blues
EXTD=
EXTT0=
EXTT1=
EXTT2=
EXTT3=
EXTT4=
EXTT5=
EXTT6=
PLAYORDER=
